<mxfile host="app.diagrams.net" modified="2023-05-18T21:19:23.049Z" agent="Mozilla/5.0 (Windows NT 10.0; Win64; x64) AppleWebKit/537.36 (KHTML, like Gecko) Chrome/112.0.0.0 Safari/537.36 OPR/98.0.0.0" etag="0YXpsQ7NkLSkiRPis8jW" version="21.3.2" type="device">
  <diagram name="Σελίδα-1" id="h-o1yX0LM2CVH-15DDE9">
    <mxGraphModel dx="1886" dy="1024" grid="1" gridSize="10" guides="1" tooltips="1" connect="1" arrows="1" fold="1" page="1" pageScale="1" pageWidth="1654" pageHeight="1169" math="0" shadow="0">
      <root>
        <mxCell id="0" />
        <mxCell id="1" parent="0" />
        <mxCell id="8t45LIVKKecfM5tV3rzv-18" style="rounded=0;orthogonalLoop=1;jettySize=auto;html=1;exitX=0.5;exitY=0.5;exitDx=0;exitDy=0;exitPerimeter=0;entryX=-0.029;entryY=0.591;entryDx=0;entryDy=0;entryPerimeter=0;strokeColor=#000000;fontColor=#000000;" parent="1" source="8t45LIVKKecfM5tV3rzv-1" target="8t45LIVKKecfM5tV3rzv-15" edge="1">
          <mxGeometry relative="1" as="geometry" />
        </mxCell>
        <mxCell id="8t45LIVKKecfM5tV3rzv-19" value="Επιλέγει διατροφολόγο" style="edgeLabel;html=1;align=center;verticalAlign=middle;resizable=0;points=[];fontColor=#000000;" parent="8t45LIVKKecfM5tV3rzv-18" vertex="1" connectable="0">
          <mxGeometry x="-0.1835" relative="1" as="geometry">
            <mxPoint x="20" y="-8" as="offset" />
          </mxGeometry>
        </mxCell>
        <mxCell id="8t45LIVKKecfM5tV3rzv-1" value="Χρήστης" style="shape=umlActor;verticalLabelPosition=bottom;verticalAlign=top;html=1;fontColor=#000000;" parent="1" vertex="1">
          <mxGeometry x="50" y="540" width="30" height="60" as="geometry" />
        </mxCell>
        <mxCell id="8t45LIVKKecfM5tV3rzv-16" value="" style="rounded=0;orthogonalLoop=1;jettySize=auto;html=1;entryX=0.598;entryY=-0.009;entryDx=0;entryDy=0;entryPerimeter=0;strokeColor=#000000;fontColor=#000000;" parent="1" source="8t45LIVKKecfM5tV3rzv-12" target="8t45LIVKKecfM5tV3rzv-15" edge="1">
          <mxGeometry relative="1" as="geometry" />
        </mxCell>
        <mxCell id="8t45LIVKKecfM5tV3rzv-12" value="&lt;font&gt;Εμφάνισε&lt;/font&gt;" style="ellipse;shape=umlControl;whiteSpace=wrap;html=1;strokeColor=#000000;fontColor=#000000;" parent="1" vertex="1">
          <mxGeometry x="580" width="70" height="80" as="geometry" />
        </mxCell>
        <mxCell id="8t45LIVKKecfM5tV3rzv-15" value="Σελίδα με λίστα διατροφολόγων&lt;br&gt;" style="shape=umlBoundary;whiteSpace=wrap;html=1;strokeColor=#000000;fontColor=#000000;" parent="1" vertex="1">
          <mxGeometry x="500" y="230" width="110" height="90" as="geometry" />
        </mxCell>
        <mxCell id="8t45LIVKKecfM5tV3rzv-28" value="" style="rounded=0;orthogonalLoop=1;jettySize=auto;html=1;exitX=0.999;exitY=0.488;exitDx=0;exitDy=0;exitPerimeter=0;strokeColor=#000000;fontColor=#000000;" parent="1" source="8t45LIVKKecfM5tV3rzv-15" target="8t45LIVKKecfM5tV3rzv-27" edge="1">
          <mxGeometry relative="1" as="geometry">
            <mxPoint x="693.099030975708" y="208.00319074045683" as="sourcePoint" />
          </mxGeometry>
        </mxCell>
        <mxCell id="8t45LIVKKecfM5tV3rzv-26" value="&lt;font&gt;Σελίδα πληροφοριών διατροφολόγου&lt;/font&gt;" style="shape=umlBoundary;whiteSpace=wrap;html=1;strokeColor=#000000;fontColor=#000000;" parent="1" vertex="1">
          <mxGeometry x="502.5" y="380" width="105" height="90" as="geometry" />
        </mxCell>
        <mxCell id="8t45LIVKKecfM5tV3rzv-33" value="" style="rounded=0;orthogonalLoop=1;jettySize=auto;html=1;strokeColor=#000000;fontColor=#000000;entryX=0.871;entryY=0.094;entryDx=0;entryDy=0;entryPerimeter=0;" parent="1" source="8t45LIVKKecfM5tV3rzv-27" target="8t45LIVKKecfM5tV3rzv-26" edge="1">
          <mxGeometry relative="1" as="geometry" />
        </mxCell>
        <mxCell id="8t45LIVKKecfM5tV3rzv-27" value="&lt;font&gt;Εμφάνισε&lt;/font&gt;" style="ellipse;shape=umlControl;whiteSpace=wrap;html=1;strokeColor=#000000;fontColor=#000000;" parent="1" vertex="1">
          <mxGeometry x="710" y="220" width="70" height="80" as="geometry" />
        </mxCell>
        <mxCell id="8t45LIVKKecfM5tV3rzv-29" value="&lt;font&gt;Λίστα διατροφολόγων&lt;/font&gt;" style="ellipse;shape=umlEntity;whiteSpace=wrap;html=1;strokeColor=#000000;fontColor=#000000;" parent="1" vertex="1">
          <mxGeometry x="772.5" width="85" height="80" as="geometry" />
        </mxCell>
        <mxCell id="mxpaeU-n5_tWIOXO6mhX-4" value="" style="endArrow=classic;html=1;rounded=0;exitX=0.999;exitY=0.546;exitDx=0;exitDy=0;exitPerimeter=0;entryX=0;entryY=0.5;entryDx=0;entryDy=0;" parent="1" source="8t45LIVKKecfM5tV3rzv-12" target="8t45LIVKKecfM5tV3rzv-29" edge="1">
          <mxGeometry width="50" height="50" relative="1" as="geometry">
            <mxPoint x="690" y="90" as="sourcePoint" />
            <mxPoint x="770" y="44" as="targetPoint" />
          </mxGeometry>
        </mxCell>
        <mxCell id="mxpaeU-n5_tWIOXO6mhX-6" value="" style="endArrow=classic;html=1;rounded=0;entryX=0.5;entryY=1;entryDx=0;entryDy=0;exitX=0.522;exitY=0.011;exitDx=0;exitDy=0;exitPerimeter=0;" parent="1" source="8t45LIVKKecfM5tV3rzv-27" target="8t45LIVKKecfM5tV3rzv-29" edge="1">
          <mxGeometry width="50" height="50" relative="1" as="geometry">
            <mxPoint x="810" y="240" as="sourcePoint" />
            <mxPoint x="860" y="190" as="targetPoint" />
          </mxGeometry>
        </mxCell>
        <mxCell id="mxpaeU-n5_tWIOXO6mhX-7" value="" style="edgeStyle=none;curved=1;rounded=0;orthogonalLoop=1;jettySize=auto;html=1;fontSize=12;startSize=8;endSize=8;strokeColor=#000000;fontColor=#000000;entryX=-0.037;entryY=0.596;entryDx=0;entryDy=0;entryPerimeter=0;exitX=0.5;exitY=0.5;exitDx=0;exitDy=0;exitPerimeter=0;" parent="1" source="8t45LIVKKecfM5tV3rzv-1" target="8t45LIVKKecfM5tV3rzv-26" edge="1">
          <mxGeometry relative="1" as="geometry">
            <mxPoint x="230" y="450" as="sourcePoint" />
            <mxPoint x="488" y="578" as="targetPoint" />
          </mxGeometry>
        </mxCell>
        <mxCell id="mxpaeU-n5_tWIOXO6mhX-8" value="&lt;font style=&quot;font-size: 12px;&quot;&gt;Εισάγει επιλογή&lt;br style=&quot;font-size: 12px;&quot;&gt;(κλείσιμο ραντεβού ή όχι)&lt;br style=&quot;font-size: 12px;&quot;&gt;&lt;/font&gt;" style="edgeLabel;html=1;align=center;verticalAlign=middle;resizable=0;points=[];fontSize=12;rotation=0;fontColor=#000000;" parent="mxpaeU-n5_tWIOXO6mhX-7" vertex="1" connectable="0">
          <mxGeometry x="-0.2525" y="2" relative="1" as="geometry">
            <mxPoint x="54" y="24" as="offset" />
          </mxGeometry>
        </mxCell>
        <mxCell id="mxpaeU-n5_tWIOXO6mhX-9" value="&lt;span style=&quot;font-size: 14px;&quot;&gt;Επιθυμία χρήστη για ραντεβού;&lt;/span&gt;" style="ellipse;shape=umlControl;whiteSpace=wrap;html=1;fontSize=16;strokeColor=#000000;fontColor=#000000;" parent="1" vertex="1">
          <mxGeometry x="950" y="250" width="90" height="100" as="geometry" />
        </mxCell>
        <mxCell id="mxpaeU-n5_tWIOXO6mhX-10" value="" style="endArrow=classic;html=1;rounded=0;exitX=1.021;exitY=0.51;exitDx=0;exitDy=0;exitPerimeter=0;entryX=0;entryY=0.5;entryDx=0;entryDy=0;entryPerimeter=0;" parent="1" source="8t45LIVKKecfM5tV3rzv-26" target="mxpaeU-n5_tWIOXO6mhX-9" edge="1">
          <mxGeometry width="50" height="50" relative="1" as="geometry">
            <mxPoint x="660" y="470" as="sourcePoint" />
            <mxPoint x="710" y="420" as="targetPoint" />
          </mxGeometry>
        </mxCell>
        <mxCell id="mxpaeU-n5_tWIOXO6mhX-11" value="" style="endArrow=classic;html=1;rounded=0;exitX=0.024;exitY=0.811;exitDx=0;exitDy=0;exitPerimeter=0;entryX=0.896;entryY=0.203;entryDx=0;entryDy=0;entryPerimeter=0;" parent="1" source="mxpaeU-n5_tWIOXO6mhX-9" target="mxpaeU-n5_tWIOXO6mhX-14" edge="1">
          <mxGeometry width="50" height="50" relative="1" as="geometry">
            <mxPoint x="1060" y="440" as="sourcePoint" />
            <mxPoint x="590" y="530" as="targetPoint" />
          </mxGeometry>
        </mxCell>
        <mxCell id="mxpaeU-n5_tWIOXO6mhX-12" value="&lt;font style=&quot;font-size: 18px;&quot;&gt;ναι&lt;br style=&quot;font-size: 18px;&quot;&gt;&lt;br style=&quot;font-size: 18px;&quot;&gt;&lt;/font&gt;" style="edgeLabel;html=1;align=center;verticalAlign=middle;resizable=0;points=[];fontSize=18;rotation=0;fontColor=#000000;" parent="1" vertex="1" connectable="0">
          <mxGeometry x="920.0026897229322" y="369.99659987217376" as="geometry">
            <mxPoint x="-9" y="14" as="offset" />
          </mxGeometry>
        </mxCell>
        <mxCell id="mxpaeU-n5_tWIOXO6mhX-13" value="&lt;font&gt;Σελίδα επιλογής ημέρας&amp;nbsp;&lt;/font&gt;" style="shape=umlBoundary;whiteSpace=wrap;html=1;strokeColor=#000000;fontColor=#000000;" parent="1" vertex="1">
          <mxGeometry x="510" y="620" width="100" height="80" as="geometry" />
        </mxCell>
        <mxCell id="mxpaeU-n5_tWIOXO6mhX-14" value="&lt;font&gt;Εμφάνισε&lt;/font&gt;" style="ellipse;shape=umlControl;whiteSpace=wrap;html=1;strokeColor=#000000;fontColor=#000000;" parent="1" vertex="1">
          <mxGeometry x="730" y="490" width="70" height="80" as="geometry" />
        </mxCell>
        <mxCell id="mxpaeU-n5_tWIOXO6mhX-16" value="" style="endArrow=classic;html=1;rounded=0;exitX=0.019;exitY=0.743;exitDx=0;exitDy=0;exitPerimeter=0;entryX=1.006;entryY=0.531;entryDx=0;entryDy=0;entryPerimeter=0;" parent="1" source="mxpaeU-n5_tWIOXO6mhX-14" target="mxpaeU-n5_tWIOXO6mhX-13" edge="1">
          <mxGeometry width="50" height="50" relative="1" as="geometry">
            <mxPoint x="400" y="690" as="sourcePoint" />
            <mxPoint x="170" y="730" as="targetPoint" />
          </mxGeometry>
        </mxCell>
        <mxCell id="mxpaeU-n5_tWIOXO6mhX-19" value="" style="endArrow=classic;html=1;rounded=0;exitX=1.033;exitY=0.587;exitDx=0;exitDy=0;exitPerimeter=0;entryX=0.039;entryY=0.555;entryDx=0;entryDy=0;entryPerimeter=0;" parent="1" source="mxpaeU-n5_tWIOXO6mhX-13" target="mxpaeU-n5_tWIOXO6mhX-20" edge="1">
          <mxGeometry width="50" height="50" relative="1" as="geometry">
            <mxPoint x="730" y="760" as="sourcePoint" />
            <mxPoint x="770" y="673" as="targetPoint" />
          </mxGeometry>
        </mxCell>
        <mxCell id="mxpaeU-n5_tWIOXO6mhX-20" value="&lt;font style=&quot;font-size: 12px;&quot;&gt;&lt;font style=&quot;font-size: 12px;&quot;&gt;Έχει ο διατροφολόγος κάποια ελεύθερη ώρα για ραντεβού την ημέρα εκείνη&lt;/font&gt;;&amp;nbsp;&lt;/font&gt;" style="ellipse;shape=umlControl;whiteSpace=wrap;html=1;strokeColor=#000000;fontColor=#000000;fontSize=12;" parent="1" vertex="1">
          <mxGeometry x="857.5" y="610" width="99" height="120" as="geometry" />
        </mxCell>
        <mxCell id="mxpaeU-n5_tWIOXO6mhX-21" value="" style="endArrow=classic;html=1;rounded=0;exitX=0.022;exitY=0.761;exitDx=0;exitDy=0;exitPerimeter=0;entryX=0.942;entryY=0.283;entryDx=0;entryDy=0;entryPerimeter=0;" parent="1" source="mxpaeU-n5_tWIOXO6mhX-20" target="mxpaeU-n5_tWIOXO6mhX-26" edge="1">
          <mxGeometry width="50" height="50" relative="1" as="geometry">
            <mxPoint x="939" y="720" as="sourcePoint" />
            <mxPoint x="670" y="790" as="targetPoint" />
          </mxGeometry>
        </mxCell>
        <mxCell id="mxpaeU-n5_tWIOXO6mhX-23" value="&lt;font&gt;Λίστα διατροφολόγων&lt;/font&gt;" style="ellipse;shape=umlEntity;whiteSpace=wrap;html=1;strokeColor=#000000;fontColor=#000000;" parent="1" vertex="1">
          <mxGeometry x="940" y="490" width="85" height="80" as="geometry" />
        </mxCell>
        <mxCell id="mxpaeU-n5_tWIOXO6mhX-24" value="" style="endArrow=classic;html=1;rounded=0;exitX=0.776;exitY=0.171;exitDx=0;exitDy=0;exitPerimeter=0;entryX=0.5;entryY=1;entryDx=0;entryDy=0;" parent="1" source="mxpaeU-n5_tWIOXO6mhX-20" target="mxpaeU-n5_tWIOXO6mhX-23" edge="1">
          <mxGeometry width="50" height="50" relative="1" as="geometry">
            <mxPoint x="900" y="677" as="sourcePoint" />
            <mxPoint x="1082" y="677" as="targetPoint" />
          </mxGeometry>
        </mxCell>
        <mxCell id="mxpaeU-n5_tWIOXO6mhX-25" value="&lt;font style=&quot;font-size: 14px;&quot;&gt;Σελίδα επιλογής ώρας ραντεβού&lt;/font&gt;" style="shape=umlBoundary;whiteSpace=wrap;html=1;strokeColor=#000000;fontColor=#000000;" parent="1" vertex="1">
          <mxGeometry x="475" y="840" width="105" height="90" as="geometry" />
        </mxCell>
        <mxCell id="mxpaeU-n5_tWIOXO6mhX-26" value="&lt;font&gt;Εμφάνισε&lt;/font&gt;" style="ellipse;shape=umlControl;whiteSpace=wrap;html=1;strokeColor=#000000;fontColor=#000000;" parent="1" vertex="1">
          <mxGeometry x="650" y="740" width="70" height="80" as="geometry" />
        </mxCell>
        <mxCell id="mxpaeU-n5_tWIOXO6mhX-27" value="" style="endArrow=classic;html=1;rounded=0;exitX=0.023;exitY=0.765;exitDx=0;exitDy=0;exitPerimeter=0;entryX=0.992;entryY=0.416;entryDx=0;entryDy=0;entryPerimeter=0;" parent="1" source="mxpaeU-n5_tWIOXO6mhX-26" target="mxpaeU-n5_tWIOXO6mhX-25" edge="1">
          <mxGeometry width="50" height="50" relative="1" as="geometry">
            <mxPoint x="524" y="910" as="sourcePoint" />
            <mxPoint x="706" y="910" as="targetPoint" />
          </mxGeometry>
        </mxCell>
        <mxCell id="mxpaeU-n5_tWIOXO6mhX-28" value="&lt;font style=&quot;font-size: 11px;&quot;&gt;Λίστα διατροφολόγων&lt;/font&gt;" style="ellipse;shape=umlEntity;whiteSpace=wrap;html=1;strokeColor=#000000;fontColor=#000000;fontSize=11;" parent="1" vertex="1">
          <mxGeometry x="840" y="750" width="80" height="80" as="geometry" />
        </mxCell>
        <mxCell id="mxpaeU-n5_tWIOXO6mhX-29" value="" style="endArrow=classic;html=1;rounded=0;exitX=1.04;exitY=0.643;exitDx=0;exitDy=0;exitPerimeter=0;entryX=0;entryY=0.5;entryDx=0;entryDy=0;" parent="1" source="mxpaeU-n5_tWIOXO6mhX-26" target="mxpaeU-n5_tWIOXO6mhX-28" edge="1">
          <mxGeometry width="50" height="50" relative="1" as="geometry">
            <mxPoint x="490" y="980" as="sourcePoint" />
            <mxPoint x="540" y="930" as="targetPoint" />
          </mxGeometry>
        </mxCell>
        <mxCell id="mxpaeU-n5_tWIOXO6mhX-30" value="" style="edgeStyle=none;curved=1;rounded=0;orthogonalLoop=1;jettySize=auto;html=1;fontSize=12;startSize=8;endSize=8;strokeColor=#000000;fontColor=#000000;exitX=0.5;exitY=0.5;exitDx=0;exitDy=0;exitPerimeter=0;entryX=0.28;entryY=0.214;entryDx=0;entryDy=0;entryPerimeter=0;" parent="1" source="8t45LIVKKecfM5tV3rzv-1" target="mxpaeU-n5_tWIOXO6mhX-25" edge="1">
          <mxGeometry relative="1" as="geometry">
            <mxPoint x="155" y="450" as="sourcePoint" />
            <mxPoint x="518" y="680" as="targetPoint" />
          </mxGeometry>
        </mxCell>
        <mxCell id="mxpaeU-n5_tWIOXO6mhX-31" value="&lt;font style=&quot;font-size: 14px;&quot;&gt;Επιλέγει ώρα&lt;br style=&quot;font-size: 12px;&quot;&gt;&lt;/font&gt;" style="edgeLabel;html=1;align=center;verticalAlign=middle;resizable=0;points=[];fontSize=12;rotation=0;fontColor=#000000;" parent="mxpaeU-n5_tWIOXO6mhX-30" vertex="1" connectable="0">
          <mxGeometry x="-0.2525" y="2" relative="1" as="geometry">
            <mxPoint x="43" y="40" as="offset" />
          </mxGeometry>
        </mxCell>
        <mxCell id="mxpaeU-n5_tWIOXO6mhX-32" value="" style="edgeStyle=none;curved=1;rounded=0;orthogonalLoop=1;jettySize=auto;html=1;fontSize=12;startSize=8;endSize=8;strokeColor=#000000;fontColor=#000000;entryX=-0.039;entryY=0.449;entryDx=0;entryDy=0;entryPerimeter=0;exitX=0.5;exitY=0.5;exitDx=0;exitDy=0;exitPerimeter=0;" parent="1" source="8t45LIVKKecfM5tV3rzv-1" target="mxpaeU-n5_tWIOXO6mhX-13" edge="1">
          <mxGeometry relative="1" as="geometry">
            <mxPoint x="135" y="470" as="sourcePoint" />
            <mxPoint x="517" y="671" as="targetPoint" />
          </mxGeometry>
        </mxCell>
        <mxCell id="mxpaeU-n5_tWIOXO6mhX-33" value="&lt;font style=&quot;font-size: 14px;&quot;&gt;Επιλέγει ημέρα&lt;br style=&quot;font-size: 12px;&quot;&gt;&lt;/font&gt;" style="edgeLabel;html=1;align=center;verticalAlign=middle;resizable=0;points=[];fontSize=12;rotation=0;fontColor=#000000;" parent="mxpaeU-n5_tWIOXO6mhX-32" vertex="1" connectable="0">
          <mxGeometry x="-0.2525" y="2" relative="1" as="geometry">
            <mxPoint x="54" y="28" as="offset" />
          </mxGeometry>
        </mxCell>
        <mxCell id="mxpaeU-n5_tWIOXO6mhX-34" value="" style="endArrow=classic;html=1;rounded=0;exitX=1.009;exitY=0.557;exitDx=0;exitDy=0;exitPerimeter=0;entryX=-0.027;entryY=0.485;entryDx=0;entryDy=0;entryPerimeter=0;" parent="1" source="mxpaeU-n5_tWIOXO6mhX-25" target="mxpaeU-n5_tWIOXO6mhX-35" edge="1">
          <mxGeometry width="50" height="50" relative="1" as="geometry">
            <mxPoint x="370" y="920" as="sourcePoint" />
            <mxPoint x="360" y="830" as="targetPoint" />
          </mxGeometry>
        </mxCell>
        <mxCell id="mxpaeU-n5_tWIOXO6mhX-35" value="&lt;font&gt;Εμφάνισε&lt;/font&gt;" style="ellipse;shape=umlControl;whiteSpace=wrap;html=1;strokeColor=#000000;fontColor=#000000;" parent="1" vertex="1">
          <mxGeometry x="690" y="860" width="70" height="80" as="geometry" />
        </mxCell>
        <mxCell id="mxpaeU-n5_tWIOXO6mhX-39" value="" style="endArrow=classic;html=1;rounded=0;exitX=0.253;exitY=0.927;exitDx=0;exitDy=0;exitPerimeter=0;entryX=1.009;entryY=0.497;entryDx=0;entryDy=0;entryPerimeter=0;" parent="1" source="mxpaeU-n5_tWIOXO6mhX-35" target="mxpaeU-n5_tWIOXO6mhX-40" edge="1">
          <mxGeometry width="50" height="50" relative="1" as="geometry">
            <mxPoint x="703" y="930" as="sourcePoint" />
            <mxPoint x="580" y="970" as="targetPoint" />
          </mxGeometry>
        </mxCell>
        <mxCell id="mxpaeU-n5_tWIOXO6mhX-40" value="&lt;font style=&quot;font-size: 14px;&quot;&gt;Σελίδα επιβεβαίωσης ραντεβού&lt;/font&gt;" style="shape=umlBoundary;whiteSpace=wrap;html=1;strokeColor=#000000;fontColor=#000000;" parent="1" vertex="1">
          <mxGeometry x="475" y="1020" width="105" height="90" as="geometry" />
        </mxCell>
        <mxCell id="mxpaeU-n5_tWIOXO6mhX-42" value="" style="edgeStyle=none;curved=1;rounded=0;orthogonalLoop=1;jettySize=auto;html=1;fontSize=12;startSize=8;endSize=8;strokeColor=#000000;fontColor=#000000;entryX=0.262;entryY=0.158;entryDx=0;entryDy=0;entryPerimeter=0;exitX=0.5;exitY=0.5;exitDx=0;exitDy=0;exitPerimeter=0;" parent="1" target="mxpaeU-n5_tWIOXO6mhX-40" edge="1">
          <mxGeometry relative="1" as="geometry">
            <mxPoint x="75" y="580" as="sourcePoint" />
            <mxPoint x="509" y="444" as="targetPoint" />
          </mxGeometry>
        </mxCell>
        <mxCell id="mxpaeU-n5_tWIOXO6mhX-43" value="&lt;font style=&quot;font-size: 13px;&quot;&gt;Εισάγει επιλογή&lt;br style=&quot;font-size: 13px;&quot;&gt;(επιβεβαίωση ή όχι)&lt;br style=&quot;font-size: 13px;&quot;&gt;&lt;/font&gt;" style="edgeLabel;html=1;align=center;verticalAlign=middle;resizable=0;points=[];fontSize=13;rotation=0;fontColor=#000000;" parent="mxpaeU-n5_tWIOXO6mhX-42" vertex="1" connectable="0">
          <mxGeometry x="-0.2525" y="2" relative="1" as="geometry">
            <mxPoint x="24" y="32" as="offset" />
          </mxGeometry>
        </mxCell>
        <mxCell id="mxpaeU-n5_tWIOXO6mhX-44" value="" style="endArrow=classic;html=1;rounded=0;exitX=1.009;exitY=0.605;exitDx=0;exitDy=0;exitPerimeter=0;entryX=-0.004;entryY=0.501;entryDx=0;entryDy=0;entryPerimeter=0;" parent="1" source="mxpaeU-n5_tWIOXO6mhX-40" target="mxpaeU-n5_tWIOXO6mhX-45" edge="1">
          <mxGeometry width="50" height="50" relative="1" as="geometry">
            <mxPoint x="500" y="1140" as="sourcePoint" />
            <mxPoint x="780" y="1110" as="targetPoint" />
          </mxGeometry>
        </mxCell>
        <mxCell id="mxpaeU-n5_tWIOXO6mhX-45" value="&lt;span style=&quot;font-size: 14px;&quot;&gt;Επιβεβαιώνει ο χρήστης;&lt;/span&gt;" style="ellipse;shape=umlControl;whiteSpace=wrap;html=1;fontSize=16;strokeColor=#000000;fontColor=#000000;" parent="1" vertex="1">
          <mxGeometry x="780" y="1040" width="92" height="100" as="geometry" />
        </mxCell>
        <mxCell id="mxpaeU-n5_tWIOXO6mhX-47" value="" style="endArrow=classic;html=1;rounded=0;exitX=1.002;exitY=0.413;exitDx=0;exitDy=0;exitPerimeter=0;entryX=0.02;entryY=0.566;entryDx=0;entryDy=0;entryPerimeter=0;" parent="1" source="mxpaeU-n5_tWIOXO6mhX-45" target="mxpaeU-n5_tWIOXO6mhX-49" edge="1">
          <mxGeometry width="50" height="50" relative="1" as="geometry">
            <mxPoint x="1100.5" y="990" as="sourcePoint" />
            <mxPoint x="1030" y="1081" as="targetPoint" />
          </mxGeometry>
        </mxCell>
        <mxCell id="mxpaeU-n5_tWIOXO6mhX-48" value="&lt;font style=&quot;font-size: 15px;&quot;&gt;ναι&lt;br style=&quot;&quot;&gt;&lt;br style=&quot;&quot;&gt;&lt;/font&gt;" style="edgeLabel;html=1;align=center;verticalAlign=middle;resizable=0;points=[];fontSize=14;rotation=0;fontColor=#000000;" parent="1" vertex="1" connectable="0">
          <mxGeometry x="800.0026897229322" y="739.9965998721738" as="geometry">
            <mxPoint x="143" y="347" as="offset" />
          </mxGeometry>
        </mxCell>
        <mxCell id="mxpaeU-n5_tWIOXO6mhX-49" value="&lt;font&gt;Πρόσθεσε ραντεβού&lt;/font&gt;" style="ellipse;shape=umlControl;whiteSpace=wrap;html=1;strokeColor=#000000;fontColor=#000000;" parent="1" vertex="1">
          <mxGeometry x="1025" y="1030" width="85" height="90" as="geometry" />
        </mxCell>
        <mxCell id="mxpaeU-n5_tWIOXO6mhX-50" value="" style="endArrow=classic;html=1;rounded=0;exitX=0.765;exitY=0.222;exitDx=0;exitDy=0;exitPerimeter=0;entryX=0.009;entryY=0.736;entryDx=0;entryDy=0;entryPerimeter=0;" parent="1" source="mxpaeU-n5_tWIOXO6mhX-49" target="mxpaeU-n5_tWIOXO6mhX-51" edge="1">
          <mxGeometry width="50" height="50" relative="1" as="geometry">
            <mxPoint x="1095" y="1050" as="sourcePoint" />
            <mxPoint x="1150" y="970" as="targetPoint" />
          </mxGeometry>
        </mxCell>
        <mxCell id="mxpaeU-n5_tWIOXO6mhX-51" value="&lt;font&gt;Λίστα &quot;Τα ραντεβού μου&quot;&lt;/font&gt;" style="ellipse;shape=umlEntity;whiteSpace=wrap;html=1;strokeColor=#000000;fontColor=#000000;" parent="1" vertex="1">
          <mxGeometry x="1170" y="910" width="85" height="80" as="geometry" />
        </mxCell>
        <mxCell id="mxpaeU-n5_tWIOXO6mhX-52" value="" style="endArrow=classic;html=1;rounded=0;exitX=0.144;exitY=0.89;exitDx=0;exitDy=0;exitPerimeter=0;entryX=0.994;entryY=0.466;entryDx=0;entryDy=0;entryPerimeter=0;" parent="1" source="mxpaeU-n5_tWIOXO6mhX-49" target="mxpaeU-n5_tWIOXO6mhX-53" edge="1">
          <mxGeometry width="50" height="50" relative="1" as="geometry">
            <mxPoint x="1187.5" y="1100" as="sourcePoint" />
            <mxPoint x="860" y="1170" as="targetPoint" />
          </mxGeometry>
        </mxCell>
        <mxCell id="mxpaeU-n5_tWIOXO6mhX-53" value="&lt;font&gt;Εμφάνισε&lt;/font&gt;" style="ellipse;shape=umlControl;whiteSpace=wrap;html=1;strokeColor=#000000;fontColor=#000000;" parent="1" vertex="1">
          <mxGeometry x="790" y="1160" width="70" height="80" as="geometry" />
        </mxCell>
        <mxCell id="mxpaeU-n5_tWIOXO6mhX-54" value="" style="endArrow=classic;html=1;rounded=0;exitX=0.006;exitY=0.56;exitDx=0;exitDy=0;exitPerimeter=0;entryX=0.988;entryY=0.596;entryDx=0;entryDy=0;entryPerimeter=0;" parent="1" source="mxpaeU-n5_tWIOXO6mhX-53" target="mxpaeU-n5_tWIOXO6mhX-55" edge="1">
          <mxGeometry width="50" height="50" relative="1" as="geometry">
            <mxPoint x="718" y="944" as="sourcePoint" />
            <mxPoint x="610" y="1205" as="targetPoint" />
          </mxGeometry>
        </mxCell>
        <mxCell id="mxpaeU-n5_tWIOXO6mhX-55" value="&lt;font style=&quot;font-size: 14px;&quot;&gt;Σελίδα με τα ραντεβού του χρήστη&lt;/font&gt;" style="shape=umlBoundary;whiteSpace=wrap;html=1;strokeColor=#000000;fontColor=#000000;" parent="1" vertex="1">
          <mxGeometry x="475" y="1160" width="105" height="90" as="geometry" />
        </mxCell>
        <mxCell id="mxpaeU-n5_tWIOXO6mhX-56" value="" style="endArrow=classic;html=1;rounded=0;exitX=0.137;exitY=0.297;exitDx=0;exitDy=0;exitPerimeter=0;fontColor=#FF0000;strokeColor=#FF0000;entryX=0.884;entryY=0.967;entryDx=0;entryDy=0;entryPerimeter=0;" parent="1" source="mxpaeU-n5_tWIOXO6mhX-9" target="8t45LIVKKecfM5tV3rzv-12" edge="1">
          <mxGeometry width="50" height="50" relative="1" as="geometry">
            <mxPoint x="902" y="421" as="sourcePoint" />
            <mxPoint x="1110" y="310" as="targetPoint" />
          </mxGeometry>
        </mxCell>
        <mxCell id="mxpaeU-n5_tWIOXO6mhX-57" value="&lt;font style=&quot;font-size: 18px;&quot;&gt;όχι&lt;br style=&quot;font-size: 18px;&quot;&gt;&lt;/font&gt;" style="edgeLabel;html=1;align=center;verticalAlign=middle;resizable=0;points=[];fontSize=18;rotation=0;fontColor=#000000;" parent="1" vertex="1" connectable="0">
          <mxGeometry x="890.0026897229322" y="239.99659987217376" as="geometry">
            <mxPoint x="9" y="-2" as="offset" />
          </mxGeometry>
        </mxCell>
        <mxCell id="mxpaeU-n5_tWIOXO6mhX-58" value="" style="endArrow=classic;html=1;rounded=0;exitX=0.976;exitY=0.444;exitDx=0;exitDy=0;exitPerimeter=0;fontColor=#FF0000;strokeColor=#FF0000;entryX=-0.022;entryY=0.612;entryDx=0;entryDy=0;entryPerimeter=0;" parent="1" source="mxpaeU-n5_tWIOXO6mhX-20" target="mxpaeU-n5_tWIOXO6mhX-61" edge="1">
          <mxGeometry width="50" height="50" relative="1" as="geometry">
            <mxPoint x="1290" y="873" as="sourcePoint" />
            <mxPoint x="1140" y="660" as="targetPoint" />
          </mxGeometry>
        </mxCell>
        <mxCell id="mxpaeU-n5_tWIOXO6mhX-59" value="&lt;font style=&quot;font-size: 18px;&quot;&gt;ναι&lt;br style=&quot;font-size: 18px;&quot;&gt;&lt;br style=&quot;font-size: 18px;&quot;&gt;&lt;/font&gt;" style="edgeLabel;html=1;align=center;verticalAlign=middle;resizable=0;points=[];fontSize=18;rotation=0;fontColor=#000000;" parent="1" vertex="1" connectable="0">
          <mxGeometry x="830.0026897229322" y="709.9965998721738" as="geometry">
            <mxPoint x="-9" y="14" as="offset" />
          </mxGeometry>
        </mxCell>
        <mxCell id="mxpaeU-n5_tWIOXO6mhX-60" value="&lt;font style=&quot;font-size: 18px;&quot;&gt;όχι&lt;br style=&quot;font-size: 18px;&quot;&gt;&lt;/font&gt;" style="edgeLabel;html=1;align=center;verticalAlign=middle;resizable=0;points=[];fontSize=18;rotation=0;fontColor=#000000;" parent="1" vertex="1" connectable="0">
          <mxGeometry x="1020.0026897229322" y="619.9965998721738" as="geometry">
            <mxPoint x="-9" y="14" as="offset" />
          </mxGeometry>
        </mxCell>
        <mxCell id="mxpaeU-n5_tWIOXO6mhX-61" value="&lt;font style=&quot;font-size: 14px;&quot;&gt;Εμφάνισε&lt;br&gt;μήνυμα για να ενημερωθεί ο χρήστης&lt;br&gt;&lt;/font&gt;" style="ellipse;shape=umlControl;whiteSpace=wrap;html=1;strokeColor=#000000;fontColor=#E6E6E6;fillColor=#FF0000;" parent="1" vertex="1">
          <mxGeometry x="1330" y="340" width="100" height="110" as="geometry" />
        </mxCell>
        <mxCell id="mxpaeU-n5_tWIOXO6mhX-62" value="" style="endArrow=classic;html=1;rounded=0;fontColor=#FF0000;strokeColor=#FF0000;entryX=0.862;entryY=0.867;entryDx=0;entryDy=0;entryPerimeter=0;exitX=0.003;exitY=0.352;exitDx=0;exitDy=0;exitPerimeter=0;" parent="1" source="mxpaeU-n5_tWIOXO6mhX-61" target="8t45LIVKKecfM5tV3rzv-12" edge="1">
          <mxGeometry width="50" height="50" relative="1" as="geometry">
            <mxPoint x="1350" y="330" as="sourcePoint" />
            <mxPoint x="1000" y="190" as="targetPoint" />
          </mxGeometry>
        </mxCell>
        <mxCell id="mxpaeU-n5_tWIOXO6mhX-63" value="" style="endArrow=classic;html=1;rounded=0;exitX=0.444;exitY=0.163;exitDx=0;exitDy=0;exitPerimeter=0;fontColor=#FF0000;strokeColor=#FF0000;entryX=0.717;entryY=1.011;entryDx=0;entryDy=0;entryPerimeter=0;" parent="1" source="mxpaeU-n5_tWIOXO6mhX-45" target="8t45LIVKKecfM5tV3rzv-12" edge="1">
          <mxGeometry width="50" height="50" relative="1" as="geometry">
            <mxPoint x="838" y="1056" as="sourcePoint" />
            <mxPoint x="1202" y="770" as="targetPoint" />
          </mxGeometry>
        </mxCell>
        <mxCell id="mxpaeU-n5_tWIOXO6mhX-64" value="&lt;font style=&quot;font-size: 18px;&quot;&gt;όχι&lt;br style=&quot;font-size: 18px;&quot;&gt;&lt;/font&gt;" style="edgeLabel;html=1;align=center;verticalAlign=middle;resizable=0;points=[];fontSize=18;rotation=0;fontColor=#000000;" parent="1" vertex="1" connectable="0">
          <mxGeometry x="815.0026897229322" y="989.9965998721738" as="geometry">
            <mxPoint x="-9" y="14" as="offset" />
          </mxGeometry>
        </mxCell>
        <mxCell id="3JyStzm--7BGserNSqWA-1" value="&lt;font&gt;Επιλογή χρήστη&lt;/font&gt;" style="ellipse;shape=umlEntity;whiteSpace=wrap;html=1;strokeColor=#000000;fontColor=#000000;" vertex="1" parent="1">
          <mxGeometry x="900" y="860" width="85" height="80" as="geometry" />
        </mxCell>
        <mxCell id="3JyStzm--7BGserNSqWA-2" value="" style="endArrow=classic;html=1;rounded=0;exitX=0.777;exitY=0.201;exitDx=0;exitDy=0;exitPerimeter=0;entryX=0.5;entryY=1;entryDx=0;entryDy=0;" edge="1" parent="1" source="mxpaeU-n5_tWIOXO6mhX-45" target="3JyStzm--7BGserNSqWA-1">
          <mxGeometry width="50" height="50" relative="1" as="geometry">
            <mxPoint x="879.5" y="1060" as="sourcePoint" />
            <mxPoint x="960.5" y="979" as="targetPoint" />
          </mxGeometry>
        </mxCell>
        <mxCell id="3JyStzm--7BGserNSqWA-3" value="&lt;font&gt;Επιλογή χρήστη&lt;/font&gt;" style="ellipse;shape=umlEntity;whiteSpace=wrap;html=1;strokeColor=#000000;fontColor=#000000;" vertex="1" parent="1">
          <mxGeometry x="1085" y="100" width="85" height="80" as="geometry" />
        </mxCell>
        <mxCell id="3JyStzm--7BGserNSqWA-4" value="" style="endArrow=classic;html=1;rounded=0;exitX=0.809;exitY=0.17;exitDx=0;exitDy=0;exitPerimeter=0;entryX=0.187;entryY=0.95;entryDx=0;entryDy=0;entryPerimeter=0;" edge="1" parent="1" source="mxpaeU-n5_tWIOXO6mhX-9" target="3JyStzm--7BGserNSqWA-3">
          <mxGeometry width="50" height="50" relative="1" as="geometry">
            <mxPoint x="944" y="641" as="sourcePoint" />
            <mxPoint x="993" y="580" as="targetPoint" />
          </mxGeometry>
        </mxCell>
      </root>
    </mxGraphModel>
  </diagram>
</mxfile>
